<?xml version="1.0" standalone="no"?>
<!DOCTYPE svg PUBLIC "-//W3C//DTD SVG 20010904//EN"
 "http://www.w3.org/TR/2001/REC-SVG-20010904/DTD/svg10.dtd">
<svg version="1.0" xmlns="http://www.w3.org/2000/svg"
 width="512.000000pt" height="512.000000pt" viewBox="0 0 512.000000 512.000000"
 preserveAspectRatio="xMidYMid meet">

<g transform="translate(0.000000,512.000000) scale(0.100000,-0.100000)"
fill="#000000" stroke="none">
<path d="M2515 5101 c-46 -29 -422 -413 -430 -439 -9 -32 11 -77 41 -91 14 -6
63 -11 109 -11 l85 0 0 -120 c0 -66 -2 -120 -4 -120 -2 0 -28 11 -59 24 -80
36 -192 56 -312 56 l-105 0 0 85 c0 46 -5 95 -11 109 -14 30 -57 49 -91 41
-34 -9 -445 -422 -453 -456 -4 -17 -1 -38 8 -55 9 -16 109 -122 224 -236 181
-181 213 -208 240 -208 17 0 41 9 54 19 22 18 24 28 27 121 l4 102 108 -4
c117 -3 140 -12 184 -72 19 -25 21 -46 27 -259 6 -228 10 -262 43 -324 l16
-32 -35 -21 c-19 -12 -59 -41 -87 -65 l-53 -44 -35 34 c-76 74 -188 89 -281
39 -63 -35 -77 -56 -199 -293 -83 -164 -93 -178 -138 -207 l-48 -32 -265 -5
c-286 -5 -320 -10 -434 -66 -115 -57 -211 -165 -279 -313 -39 -85 -197 -583
-204 -644 -11 -100 63 -210 161 -239 59 -17 95 -19 131 -5 l25 9 3 -522 c3
-513 3 -523 25 -562 46 -86 118 -129 213 -129 101 0 163 39 210 134 20 39 28
98 62 430 21 211 41 386 43 389 3 2 7 2 10 0 2 -3 21 -169 40 -370 20 -200 43
-387 52 -416 32 -107 112 -167 223 -167 95 0 167 43 213 129 22 40 22 42 25
860 l3 820 56 35 c54 34 105 87 155 163 l25 38 5 -75 c7 -101 38 -155 109
-188 l50 -23 -6 -80 c-9 -129 -40 -335 -141 -955 -102 -624 -103 -636 -63
-730 39 -90 145 -160 244 -160 101 0 213 75 253 168 11 26 71 233 133 459 150
542 130 537 258 70 160 -582 146 -543 211 -609 82 -82 169 -105 277 -73 99 30
176 128 189 243 4 33 -22 218 -90 627 -101 619 -132 822 -142 957 l-7 85 27 7
c15 4 44 23 66 42 45 41 70 107 70 187 l0 50 49 -70 c52 -74 90 -110 152 -146
l38 -22 3 -820 c3 -818 3 -820 25 -860 94 -174 323 -177 417 -5 27 50 30 68
68 438 21 213 41 388 43 391 3 2 7 2 10 -1 3 -2 21 -168 40 -369 20 -200 42
-386 50 -414 30 -106 115 -169 225 -169 95 0 167 43 213 129 22 39 22 49 25
558 l3 518 48 -7 c132 -17 252 79 267 214 5 40 -8 91 -81 327 -48 154 -103
313 -121 353 -67 148 -164 256 -279 313 -114 56 -148 61 -434 66 l-265 5 -48
32 c-45 29 -55 44 -149 226 -56 107 -110 206 -120 221 -9 14 -41 38 -69 53
-93 50 -204 35 -280 -39 l-36 -35 -49 41 c-28 23 -66 53 -86 66 l-36 24 26 62
c24 59 26 73 31 294 5 214 7 234 26 259 44 60 67 69 185 72 l109 4 0 -96 c0
-82 3 -99 20 -116 28 -28 63 -34 96 -17 46 24 432 418 439 448 4 17 1 38 -8
55 -24 46 -418 432 -448 439 -31 8 -83 -15 -93 -40 -3 -9 -6 -57 -6 -106 l0
-89 -104 0 c-124 0 -229 -18 -310 -54 -32 -14 -60 -26 -62 -26 -2 0 -4 54 -4
120 l0 120 85 0 c46 0 95 5 109 11 30 14 50 59 41 91 -9 27 -398 423 -437 444
-35 18 -47 18 -83 -5z m150 -281 l100 -100 -38 0 c-27 0 -45 -7 -62 -25 l-25
-24 0 -240 0 -240 -37 -55 c-21 -30 -40 -55 -43 -55 -3 0 -22 24 -42 54 l-38
54 0 241 0 241 -25 24 c-17 18 -35 25 -62 25 l-38 0 100 100 c55 55 102 100
105 100 3 0 50 -45 105 -100z m-961 -558 c14 -14 46 -18 209 -23 206 -7 224
-10 316 -59 110 -59 221 -205 237 -311 5 -34 4 -34 -70 -69 l-74 -35 -7 42
c-8 58 -60 157 -97 188 -17 14 -54 38 -82 53 -49 25 -59 27 -228 30 l-177 4
-25 -26 c-19 -18 -26 -36 -26 -63 l0 -38 -102 102 -103 103 100 100 100 101 6
-41 c3 -22 13 -48 23 -58z m1841 -202 c-87 -87 -100 -98 -103 -78 -12 92 -36
101 -244 96 l-163 -3 -63 -34 c-94 -51 -155 -135 -168 -233 l-6 -45 -42 23
c-22 13 -57 29 -78 34 l-36 10 13 48 c47 177 188 314 363 351 29 6 120 11 202
11 88 0 159 5 173 11 28 13 47 48 47 87 0 24 10 17 102 -75 l103 -103 -100
-100z m-911 -392 c26 -8 60 -31 92 -63 43 -43 54 -61 64 -108 21 -91 2 -157
-64 -222 -99 -98 -222 -101 -326 -8 -107 96 -107 250 0 346 71 64 145 81 234
55z m-256 -582 c78 -39 160 -52 242 -38 39 7 94 24 121 38 l51 25 64 -42 c79
-51 161 -139 198 -213 54 -106 59 -139 63 -447 5 -312 3 -329 -45 -329 -28 0
-268 78 -245 79 23 2 96 75 114 116 15 32 19 66 19 167 0 141 -8 171 -51 189
-34 14 -84 -2 -99 -32 -8 -13 -18 -16 -43 -12 -26 4 -253 -41 -423 -83 -22 -6
-24 -3 -24 29 0 77 -50 122 -109 98 -41 -17 -51 -49 -51 -159 0 -107 11 -135
56 -146 16 -4 119 14 280 50 242 53 255 55 279 40 34 -22 35 -79 3 -100 -32
-20 -700 -236 -730 -236 -13 0 -29 5 -36 12 -19 19 -16 532 3 623 29 139 105
251 235 347 36 26 69 48 73 48 4 0 29 -11 55 -24z m-1655 -678 c-46 -48 -97
-128 -131 -203 -43 -96 -193 -598 -187 -625 3 -14 8 -33 11 -42 4 -14 -1 -18
-21 -18 -32 0 -75 41 -75 72 0 31 154 524 186 596 48 109 126 201 209 245 49
27 52 19 8 -25z m2042 -401 l190 -63 12 -132 c15 -172 46 -375 149 -995 46
-279 84 -519 84 -533 0 -41 -30 -93 -63 -111 -54 -27 -129 -5 -158 48 -5 9
-61 205 -124 435 -64 231 -123 440 -131 466 -23 70 -40 78 -166 78 -97 0 -109
-2 -132 -22 -21 -19 -45 -95 -152 -483 -69 -253 -130 -468 -136 -478 -14 -26
-68 -57 -101 -57 -66 0 -117 54 -117 124 0 19 40 279 89 578 110 669 128 789
144 953 l12 129 190 63 c105 34 197 62 205 62 8 0 100 -28 205 -62z m-2031
-1669 c13 -28 -40 -23 -69 7 l-25 24 0 590 0 591 38 75 37 76 5 -673 c3 -370
9 -681 14 -690z"/>
<path d="M945 3586 c-155 -37 -266 -158 -296 -320 -48 -261 194 -506 453 -458
174 32 298 156 330 330 22 117 -22 253 -110 341 -101 101 -240 140 -377 107z
m163 -158 c69 -17 145 -95 162 -167 44 -184 -122 -343 -302 -289 -59 17 -133
88 -152 145 -34 99 -16 177 58 249 71 69 137 87 234 62z"/>
<path d="M3983 3585 c-167 -45 -284 -181 -300 -346 -23 -257 211 -477 459
-431 220 41 369 246 330 455 -31 166 -136 280 -299 322 -70 18 -121 18 -190 0z
m171 -157 c64 -19 140 -100 156 -167 22 -93 -6 -181 -80 -243 -98 -85 -233
-76 -324 22 -52 55 -71 111 -63 186 16 152 161 246 311 202z"/>
</g>
</svg>
